  0
SECTION
  2
HEADER
  9
$ACADVER
  1
AC1006
  9
$EXTMIN
 10
0.000000
 20
0.000000
 30
0.000000
  9
$EXTMAX
 10
277.000000
 20
577.000000
 30
0.000000
  0
ENDSEC
  0
SECTION
  2
ENTITIES
  0
POLYLINE
  8
0
 66
1
 70
1
  0
VERTEX
  8
0
 10
213.803239
 20
552.302992
 42
-0.000393
  0
VERTEX
  8
0
 10
209.727331
 20
547.601039
 42
-0.000282
  0
VERTEX
  8
0
 10
205.166020
 20
542.353450
 42
-0.000285
  0
VERTEX
  8
0
 10
200.818106
 20
537.362799
 42
-0.000614
  0
VERTEX
  8
0
 10
197.464063
 20
533.526879
 42
0.001573
  0
VERTEX
  8
0
 10
192.952336
 20
528.346941
 42
0.000136
  0
VERTEX
  8
0
 10
181.476107
 20
515.079771
 42
0.000179
  0
VERTEX
  8
0
 10
167.796767
 20
499.245575
 42
0.000139
  0
VERTEX
  8
0
 10
152.917230
 20
482.000000
 42
-0.000004
  0
VERTEX
  8
0
 10
137.765322
 20
464.429159
 42
-0.000004
  0
VERTEX
  8
0
 10
123.257911
 20
447.606250
 42
-0.000004
  0
VERTEX
  8
0
 10
110.939162
 20
433.321800
 42
-0.000024
  0
VERTEX
  8
0
 10
104.624212
 20
426.000000
 42
0.018236
  0
VERTEX
  8
0
 10
97.320450
 20
416.880358
 42
0.016133
  0
VERTEX
  8
0
 10
90.382248
 20
406.879955
 42
0.007706
  0
VERTEX
  8
0
 10
80.670640
 20
391.350829
 42
0.000989
  0
VERTEX
  8
0
 10
60.421046
 20
357.682806
 42
0.000958
  0
VERTEX
  8
0
 10
47.607795
 20
336.189780
 42
0.001558
  0
VERTEX
  8
0
 10
36.817432
 20
317.881142
 42
0.000190
  0
VERTEX
  8
0
 10
27.262105
 20
301.537707
 42
0.132945
  0
VERTEX
  8
0
 10
27.000000
 20
300.569370
 42
0.227557
  0
VERTEX
  8
0
 10
27.310415
 20
299.922627
 42
0.022065
  0
VERTEX
  8
0
 10
28.752598
 20
298.867379
 42
0.024542
  0
VERTEX
  8
0
 10
30.680583
 20
297.715639
 42
0.016898
  0
VERTEX
  8
0
 10
32.966290
 20
296.595615
 42
-0.008029
  0
VERTEX
  8
0
 10
35.290377
 20
295.507461
 42
-0.011116
  0
VERTEX
  8
0
 10
37.335803
 20
294.452500
 42
-0.007857
  0
VERTEX
  8
0
 10
38.998553
 20
293.513399
 42
-0.122452
  0
VERTEX
  8
0
 10
39.463033
 20
293.059814
 42
-0.236768
  0
VERTEX
  8
0
 10
39.566488
 20
291.895220
 42
-0.001371
  0
VERTEX
  8
0
 10
35.408880
 20
281.459080
 42
-0.002802
  0
VERTEX
  8
0
 10
28.742522
 20
265.123453
 42
-0.000338
  0
VERTEX
  8
0
 10
13.828868
 20
229.224190
 42
0.004259
  0
VERTEX
  8
0
 10
10.789522
 20
221.743007
 42
0.006608
  0
VERTEX
  8
0
 10
8.307832
 20
215.232175
 42
0.002492
  0
VERTEX
  8
0
 10
6.287930
 20
209.628507
 42
0.178714
  0
VERTEX
  8
0
 10
6.300245
 20
208.659957
 42
0.179144
  0
VERTEX
  8
0
 10
6.835171
 20
208.051204
 42
0.016530
  0
VERTEX
  8
0
 10
8.662397
 20
207.140718
 42
0.019672
  0
VERTEX
  8
0
 10
10.986426
 20
206.185736
 42
0.014158
  0
VERTEX
  8
0
 10
13.647330
 20
205.297353
 42
-0.002597
  0
VERTEX
  8
0
 10
28.218103
 20
200.804309
 42
-0.000913
  0
VERTEX
  8
0
 10
49.086146
 20
194.208696
 42
-0.000055
  0
VERTEX
  8
0
 10
72.252851
 20
186.837235
 42
-0.119876
  0
VERTEX
  8
0
 10
72.874473
 20
186.458860
 42
-0.266001
  0
VERTEX
  8
0
 10
72.975146
 20
186.088537
 42
-0.000309
  0
VERTEX
  8
0
 10
70.889651
 20
178.092880
 42
-0.002585
  0
VERTEX
  8
0
 10
68.492262
 20
169.114611
 42
-0.001573
  0
VERTEX
  8
0
 10
65.570379
 20
158.526179
 42
0.004973
  0
VERTEX
  8
0
 10
60.907760
 20
141.170164
 42
0.010048
  0
VERTEX
  8
0
 10
57.647270
 20
127.394496
 42
0.008918
  0
VERTEX
  8
0
 10
54.712641
 20
112.495342
 42
0.003130
  0
VERTEX
  8
0
 10
51.014363
 20
91.000000
 42
0.011932
  0
VERTEX
  8
0
 10
50.090990
 20
84.459930
 42
0.002310
  0
VERTEX
  8
0
 10
48.759432
 20
72.596875
 42
0.002456
  0
VERTEX
  8
0
 10
47.338014
 20
58.743069
 42
0.002266
  0
VERTEX
  8
0
 10
46.012471
 20
44.500000
 42
-0.000725
  0
VERTEX
  8
0
 10
44.785269
 20
30.858049
 42
-0.001059
  0
VERTEX
  8
0
 10
43.661393
 20
18.845345
 42
-0.000509
  0
VERTEX
  8
0
 10
42.673188
 20
8.628407
 42
-0.018900
  0
VERTEX
  8
0
 10
42.358267
 20
6.313941
 42
0.025184
  0
VERTEX
  8
0
 10
42.122222
 20
4.399463
 42
0.181384
  0
VERTEX
  8
0
 10
42.380537
 20
3.522797
 42
0.172130
  0
VERTEX
  8
0
 10
43.159794
 20
3.007265
 42
0.022208
  0
VERTEX
  8
0
 10
45.150705
 20
2.605475
 42
0.015489
  0
VERTEX
  8
0
 10
50.540431
 20
1.935060
 42
0.020029
  0
VERTEX
  8
0
 10
55.517357
 20
1.672417
 42
0.013678
  0
VERTEX
  8
0
 10
59.655875
 20
1.733184
 42
0.305611
  0
VERTEX
  8
0
 10
60.574066
 20
2.410032
 42
0.061151
  0
VERTEX
  8
0
 10
60.898622
 20
3.859890
 42
0.000088
  0
VERTEX
  8
0
 10
63.610197
 20
31.469884
 42
0.000837
  0
VERTEX
  8
0
 10
66.021583
 20
56.499351
 42
0.002555
  0
VERTEX
  8
0
 10
67.543143
 20
73.500000
 42
-0.025620
  0
VERTEX
  8
0
 10
68.490349
 20
80.453733
 42
-0.002534
  0
VERTEX
  8
0
 10
71.703140
 20
97.009330
 42
-0.003522
  0
VERTEX
  8
0
 10
75.273638
 20
114.286578
 42
-0.006875
  0
VERTEX
  8
0
 10
78.406300
 20
128.000000
 42
-0.012003
  0
VERTEX
  8
0
 10
79.235422
 20
131.087666
 42
-0.002365
  0
VERTEX
  8
0
 10
80.882130
 20
136.584375
 42
-0.002506
  0
VERTEX
  8
0
 10
82.863452
 20
142.971062
 42
-0.002324
  0
VERTEX
  8
0
 10
84.958248
 20
149.500000
 42
0.000840
  0
VERTEX
  8
0
 10
93.248795
 20
175.078255
 42
0.002747
  0
VERTEX
  8
0
 10
98.610709
 20
192.034819
 42
0.000635
  0
VERTEX
  8
0
 10
102.618058
 20
205.012395
 42
0.216230
  0
VERTEX
  8
0
 10
102.488994
 20
206.017808
 42
0.168335
  0
VERTEX
  8
0
 10
102.008672
 20
206.409157
 42
0.000591
  0
VERTEX
  8
0
 10
94.938326
 20
208.981651
 42
0.003058
  0
VERTEX
  8
0
 10
86.881430
 20
211.846702
 42
0.001903
  0
VERTEX
  8
0
 10
77.399219
 20
215.113001
 42
-0.003040
  0
VERTEX
  8
0
 10
67.920296
 20
218.402308
 42
-0.004866
  0
VERTEX
  8
0
 10
59.872518
 20
221.338362
 42
-0.001233
  0
VERTEX
  8
0
 10
52.903950
 20
223.977432
 42
-0.212921
  0
VERTEX
  8
0
 10
52.351678
 20
224.528230
 42
-0.204471
  0
VERTEX
  8
0
 10
52.391759
 20
225.634194
 42
-0.000094
  0
VERTEX
  8
0
 10
68.290905
 20
259.424039
 42
-0.000207
  0
VERTEX
  8
0
 10
83.926011
 20
292.600852
 42
-0.082733
  0
VERTEX
  8
0
 10
85.396966
 20
294.723939
 42
-0.302534
  0
VERTEX
  8
0
 10
85.602437
 20
294.768216
 42
-0.000171
  0
VERTEX
  8
0
 10
91.702557
 20
292.362387
 42
-0.001984
  0
VERTEX
  8
0
 10
98.511531
 20
289.643014
 42
-0.001199
  0
VERTEX
  8
0
 10
106.557273
 20
286.370146
 42
0.001232
  0
VERTEX
  8
0
 10
122.742261
 20
279.787626
 42
0.011792
  0
VERTEX
  8
0
 10
129.715541
 20
277.161074
 42
0.020792
  0
VERTEX
  8
0
 10
133.643314
 20
275.967285
 42
0.393248
  0
VERTEX
  8
0
 10
134.680214
 20
276.528184
 42
-0.042017
  0
VERTEX
  8
0
 10
135.001493
 20
277.268241
 42
-0.000146
  0
VERTEX
  8
0
 10
139.612058
 20
285.832585
 42
-0.000791
  0
VERTEX
  8
0
 10
144.851406
 20
295.521398
 42
-0.000496
  0
VERTEX
  8
0
 10
151.008743
 20
306.838064
 42
0.002448
  0
VERTEX
  8
0
 10
157.105160
 20
318.147699
 42
0.003991
  0
VERTEX
  8
0
 10
162.153761
 20
327.809338
 42
0.000737
  0
VERTEX
  8
0
 10
166.509236
 20
336.340065
 42
0.261787
  0
VERTEX
  8
0
 10
166.480530
 20
337.031503
 42
0.125569
  0
VERTEX
  8
0
 10
165.940059
 20
337.552851
 42
0.000942
  0
VERTEX
  8
0
 10
160.533000
 20
340.617758
 42
0.003443
  0
VERTEX
  8
0
 10
154.287793
 20
344.085749
 42
0.002193
  0
VERTEX
  8
0
 10
146.975978
 20
348.038868
 42
-0.002379
  0
VERTEX
  8
0
 10
139.661111
 20
351.997155
 42
-0.003716
  0
VERTEX
  8
0
 10
133.405744
 20
355.481356
 42
-0.001094
  0
VERTEX
  8
0
 10
128.008953
 20
358.555736
 42
-0.124948
  0
VERTEX
  8
0
 10
127.426448
 20
359.119009
 42
-0.306574
  0
VERTEX
  8
0
 10
127.493335
 20
360.734465
 42
-0.003425
  0
VERTEX
  8
0
 10
134.367851
 20
369.906521
 42
-0.010481
  0
VERTEX
  8
0
 10
141.768591
 20
379.228800
 42
-0.013597
  0
VERTEX
  8
0
 10
148.955964
 20
387.437645
 42
-0.004803
  0
VERTEX
  8
0
 10
154.099343
 20
392.893244
 42
-0.000249
  0
VERTEX
  8
0
 10
170.831550
 20
410.285617
 42
-0.000395
  0
VERTEX
  8
0
 10
190.753067
 20
430.939757
 42
-0.000287
  0
VERTEX
  8
0
 10
212.955964
 20
453.896372
 42
0.001249
  0
VERTEX
  8
0
 10
234.634954
 20
476.397770
 42
0.002041
  0
VERTEX
  8
0
 10
252.890190
 20
495.596765
 42
0.000241
  0
VERTEX
  8
0
 10
269.071208
 20
512.770595
 42
0.191065
  0
VERTEX
  8
0
 10
269.500000
 20
513.851740
 42
0.216624
  0
VERTEX
  8
0
 10
269.087498
 20
514.759178
 42
0.008054
  0
VERTEX
  8
0
 10
266.148442
 20
517.241640
 42
0.013216
  0
VERTEX
  8
0
 10
262.441207
 20
520.111958
 42
0.008493
  0
VERTEX
  8
0
 10
258.000000
 20
523.252002
 42
-0.004037
  0
VERTEX
  8
0
 10
253.568433
 20
526.326370
 42
-0.006169
  0
VERTEX
  8
0
 10
249.779909
 20
529.070847
 42
-0.002507
  0
VERTEX
  8
0
 10
246.588684
 20
531.468150
 42
-0.147352
  0
VERTEX
  8
0
 10
246.165646
 20
532.049695
 42
-0.180391
  0
VERTEX
  8
0
 10
246.178839
 20
532.688911
 42
-0.009489
  0
VERTEX
  8
0
 10
246.982413
 20
534.607940
 42
-0.013969
  0
VERTEX
  8
0
 10
248.066635
 20
536.890390
 42
-0.009625
  0
VERTEX
  8
0
 10
249.415646
 20
539.415546
 42
0.003106
  0
VERTEX
  8
0
 10
250.789348
 20
541.908176
 42
0.004743
  0
VERTEX
  8
0
 10
251.947096
 20
544.089254
 42
0.001810
  0
VERTEX
  8
0
 10
252.915136
 20
545.972116
 42
0.118366
  0
VERTEX
  8
0
 10
253.000000
 20
546.325575
 42
0.267058
  0
VERTEX
  8
0
 10
252.829404
 20
546.622195
 42
0.000785
  0
VERTEX
  8
0
 10
248.814063
 20
548.949875
 42
0.004144
  0
VERTEX
  8
0
 10
244.213376
 20
551.556623
 42
0.002541
  0
VERTEX
  8
0
 10
238.750000
 20
554.556387
 42
-0.000025
  0
VERTEX
  8
0
 10
233.237845
 20
557.546919
 42
-0.000038
  0
VERTEX
  8
0
 10
228.481264
 20
560.128298
 42
-0.000011
  0
VERTEX
  8
0
 10
224.339437
 20
562.376575
 42
-0.001266
  0
VERTEX
  8
0
 10
223.803239
 20
562.669410
 42
0.335384
  0
VERTEX
  8
0
 10
223.327821
 20
562.600089
 42
0.002851
  0
VERTEX
  8
0
 10
220.578326
 20
559.782187
 42
0.008377
  0
VERTEX
  8
0
 10
217.420240
 20
556.396665
 42
0.005122
  0
SEQEND
  0
POLYLINE
  8
0
 66
1
 70
1
  0
VERTEX
  8
0
 10
241.250000
 20
552.051416
 42
-0.008052
  0
VERTEX
  8
0
 10
244.986885
 20
549.971065
 42
-0.012481
  0
VERTEX
  8
0
 10
248.135938
 20
548.044507
 42
-0.006764
  0
VERTEX
  8
0
 10
250.683227
 20
546.348041
 42
-0.247298
  0
VERTEX
  8
0
 10
251.000000
 20
545.746741
 42
-0.104215
  0
VERTEX
  8
0
 10
250.853825
 20
545.053045
 42
-0.006168
  0
VERTEX
  8
0
 10
249.958096
 20
543.088021
 42
-0.009081
  0
VERTEX
  8
0
 10
248.811792
 20
540.763819
 42
-0.006558
  0
VERTEX
  8
0
 10
247.453093
 20
538.213286
 42
0.004718
  0
VERTEX
  8
0
 10
246.114527
 20
535.722670
 42
0.007763
  0
VERTEX
  8
0
 10
245.035306
 20
533.588518
 42
0.002431
  0
VERTEX
  8
0
 10
244.151177
 20
531.747908
 42
0.352407
  0
VERTEX
  8
0
 10
244.203093
 20
531.530780
 42
0.012958
  0
VERTEX
  8
0
 10
244.443737
 20
531.354381
 42
0.000032
  0
VERTEX
  8
0
 10
247.937784
 20
528.930112
 42
0.000206
  0
VERTEX
  8
0
 10
251.878284
 20
526.198855
 42
0.000128
  0
VERTEX
  8
0
 10
256.500000
 20
523.000000
 42
-0.000325
  0
VERTEX
  8
0
 10
261.130016
 20
519.792710
 42
-0.000512
  0
VERTEX
  8
0
 10
265.097744
 20
517.034361
 42
-0.000113
  0
VERTEX
  8
0
 10
268.579666
 20
514.607276
 42
-0.022303
  0
VERTEX
  8
0
 10
268.917851
 20
514.348276
 42
-0.429061
  0
VERTEX
  8
0
 10
268.954718
 20
513.754576
 42
-0.001159
  0
VERTEX
  8
0
 10
262.826681
 20
507.188586
 42
-0.003812
  0
VERTEX
  8
0
 10
254.195616
 20
498.123036
 42
-0.000882
  0
VERTEX
  8
0
 10
239.524306
 20
483.000000
 42
0.000543
  0
VERTEX
  8
0
 10
225.731109
 20
468.801391
 42
0.000114
  0
VERTEX
  8
0
 10
201.647301
 20
443.944460
 42
0.000127
  0
VERTEX
  8
0
 10
175.929193
 20
417.375133
 42
0.000212
  0
VERTEX
  8
0
 10
154.300290
 20
395.000000
 42
0.016269
  0
VERTEX
  8
0
 10
146.261071
 20
386.115311
 42
0.006555
  0
VERTEX
  8
0
 10
135.845625
 20
373.491497
 42
0.001253
  0
VERTEX
  8
0
 10
124.966235
 20
359.877787
 42
0.408293
  0
VERTEX
  8
0
 10
125.094731
 20
358.641377
 42
0.048714
  0
VERTEX
  8
0
 10
125.441128
 20
358.407119
 42
0.000096
  0
VERTEX
  8
0
 10
131.311567
 20
355.222332
 42
0.000687
  0
VERTEX
  8
0
 10
137.920137
 20
351.650484
 42
0.000426
  0
VERTEX
  8
0
 10
145.689327
 20
347.473663
 42
-0.001929
  0
VERTEX
  8
0
 10
158.083231
 20
340.762444
 42
-0.023449
  0
VERTEX
  8
0
 10
162.698311
 20
337.951700
 42
-0.077093
  0
VERTEX
  8
0
 10
164.649225
 20
336.142207
 42
-0.295787
  0
VERTEX
  8
0
 10
164.797260
 20
334.570889
 42
-0.003746
  0
VERTEX
  8
0
 10
164.008250
 20
333.087115
 42
-0.000108
  0
VERTEX
  8
0
 10
160.598655
 20
326.792699
 42
-0.000218
  0
VERTEX
  8
0
 10
156.581485
 20
319.388157
 42
-0.000150
  0
VERTEX
  8
0
 10
152.022687
 20
311.000000
 42
0.000310
  0
VERTEX
  8
0
 10
147.303604
 20
302.310300
 42
0.000352
  0
VERTEX
  8
0
 10
142.793805
 20
293.979688
 42
0.000319
  0
VERTEX
  8
0
 10
138.972849
 20
286.898823
 42
0.001973
  0
VERTEX
  8
0
 10
137.025428
 20
283.250000
 42
-0.008073
  0
VERTEX
  8
0
 10
135.709150
 20
280.854552
 42
-0.012523
  0
VERTEX
  8
0
 10
134.489115
 20
278.835938
 42
-0.006790
  0
VERTEX
  8
0
 10
133.414031
 20
277.203096
 42
-0.248682
  0
VERTEX
  8
0
 10
133.030940
 20
277.000000
 42
-0.095071
  0
VERTEX
  8
0
 10
132.503022
 20
277.101294
 42
-0.000264
  0
VERTEX
  8
0
 10
125.763377
 20
279.790625
 42
-0.001581
  0
VERTEX
  8
0
 10
118.157793
 20
282.858085
 42
-0.000985
  0
VERTEX
  8
0
 10
109.259814
 20
286.500000
 42
0.001231
  0
VERTEX
  8
0
 10
100.349816
 20
290.141710
 42
0.001958
  0
VERTEX
  8
0
 10
92.705427
 20
293.209375
 42
0.000404
  0
VERTEX
  8
0
 10
85.969586
 20
295.875564
 42
0.094301
  0
VERTEX
  8
0
 10
85.315671
 20
296.000000
 42
0.286590
  0
VERTEX
  8
0
 10
84.624026
 20
295.568087
 42
0.000073
  0
VERTEX
  8
0
 10
68.125307
 20
261.777214
 42
0.000536
  0
VERTEX
  8
0
 10
52.754220
 20
230.198207
 42
0.028953
  0
VERTEX
  8
0
 10
50.194953
 20
224.042775
 42
0.240235
  0
VERTEX
  8
0
 10
50.247235
 20
223.658989
 42
0.076411
  0
VERTEX
  8
0
 10
50.656621
 20
223.227788
 42
0.056837
  0
VERTEX
  8
0
 10
51.334313
 20
222.816691
 42
0.036691
  0
VERTEX
  8
0
 10
52.194953
 20
222.494345
 42
-0.011406
  0
VERTEX
  8
0
 10
57.239860
 20
220.890377
 42
-0.000444
  0
VERTEX
  8
0
 10
75.687827
 20
214.539919
 42
-0.000401
  0
VERTEX
  8
0
 10
94.273117
 20
208.107030
 42
-0.012960
  0
VERTEX
  8
0
 10
98.751521
 20
206.421637
 42
-0.020740
  0
VERTEX
  8
0
 10
100.557047
 20
205.599399
 42
-0.134571
  0
VERTEX
  8
0
 10
101.290572
 20
204.934525
 42
-0.191347
  0
VERTEX
  8
0
 10
101.447826
 20
204.111503
 42
-0.050261
  0
VERTEX
  8
0
 10
101.056905
 20
202.800391
 42
0.015827
  0
VERTEX
  8
0
 10
100.512617
 20
201.347996
 42
0.001704
  0
VERTEX
  8
0
 10
99.371516
 20
197.944490
 42
0.002093
  0
VERTEX
  8
0
 10
98.043220
 20
193.880489
 42
0.001685
  0
VERTEX
  8
0
 10
96.648027
 20
189.500000
 42
-0.000871
  0
VERTEX
  8
0
 10
94.819187
 20
183.725509
 42
-0.000252
  0
VERTEX
  8
0
 10
91.975308
 20
174.815636
 42
-0.000253
  0
VERTEX
  8
0
 10
88.760170
 20
164.777629
 42
-0.000270
  0
VERTEX
  8
0
 10
85.603472
 20
154.957486
 42
0.011896
  0
VERTEX
  8
0
 10
79.465022
 20
134.218341
 42
0.008222
  0
VERTEX
  8
0
 10
73.467494
 20
110.486001
 42
0.007875
  0
VERTEX
  8
0
 10
68.623451
 20
88.339774
 42
0.028167
  0
VERTEX
  8
0
 10
66.554833
 20
74.000000
 42
-0.001898
  0
VERTEX
  8
0
 10
65.882482
 20
66.611127
 42
-0.000116
  0
VERTEX
  8
0
 10
63.790722
 20
44.606214
 42
-0.000182
  0
VERTEX
  8
0
 10
61.710880
 20
22.864602
 42
-0.000688
  0
VERTEX
  8
0
 10
60.384559
 20
9.250000
 42
0.000000
  0
VERTEX
  8
0
 10
59.767006
 20
3.000000
 42
0.000000
  0
VERTEX
  8
0
 10
52.965290
 20
3.000000
 42
-0.010317
  0
VERTEX
  8
0
 10
47.250354
 20
3.117939
 42
-0.086770
  0
VERTEX
  8
0
 10
44.740306
 20
3.664425
 42
-0.225809
  0
VERTEX
  8
0
 10
43.676157
 20
4.831857
 42
-0.117908
  0
VERTEX
  8
0
 10
43.554997
 20
6.840453
 42
0.020360
  0
VERTEX
  8
0
 10
43.989056
 20
10.065913
 42
0.000474
  0
VERTEX
  8
0
 10
45.400641
 20
25.348025
 42
0.000980
  0
VERTEX
  8
0
 10
47.083226
 20
44.161221
 42
0.000519
  0
VERTEX
  8
0
 10
49.100060
 20
67.500000
 42
-0.009116
  0
VERTEX
  8
0
 10
49.755040
 20
73.812061
 42
-0.003850
  0
VERTEX
  8
0
 10
50.854060
 20
82.262500
 42
-0.003808
  0
VERTEX
  8
0
 10
52.166712
 20
91.274120
 42
-0.004962
  0
VERTEX
  8
0
 10
53.512651
 20
99.500000
 42
0.000015
  0
VERTEX
  8
0
 10
54.859738
 20
107.250815
 42
0.000016
  0
VERTEX
  8
0
 10
56.176189
 20
114.828125
 42
0.000015
  0
VERTEX
  8
0
 10
57.307251
 20
121.340755
 42
0.000075
  0
VERTEX
  8
0
 10
57.942081
 20
125.000000
 42
-0.019307
  0
VERTEX
  8
0
 10
58.787922
 20
128.963837
 42
-0.002292
  0
VERTEX
  8
0
 10
61.042480
 20
137.668750
 42
-0.002735
  0
VERTEX
  8
0
 10
63.827824
 20
147.994201
 42
-0.002241
  0
VERTEX
  8
0
 10
66.914517
 20
159.000000
 42
0.002565
  0
VERTEX
  8
0
 10
69.877146
 20
169.589863
 42
0.004177
  0
VERTEX
  8
0
 10
72.270492
 20
178.611991
 42
0.000808
  0
VERTEX
  8
0
 10
74.291101
 20
186.547396
 42
0.260612
  0
VERTEX
  8
0
 10
74.130148
 20
187.147204
 42
0.121733
  0
VERTEX
  8
0
 10
73.538538
 20
187.515216
 42
0.000299
  0
VERTEX
  8
0
 10
63.991356
 20
190.611440
 42
0.001883
  0
VERTEX
  8
0
 10
53.196561
 20
194.060291
 42
0.001169
  0
VERTEX
  8
0
 10
40.500000
 20
198.031510
 42
-0.000582
  0
VERTEX
  8
0
 10
27.819011
 20
201.981545
 42
-0.000951
  0
VERTEX
  8
0
 10
17.076217
 20
205.364024
 42
-0.000090
  0
VERTEX
  8
0
 10
7.465613
 20
208.412035
 42
-0.102904
  0
VERTEX
  8
0
 10
7.099887
 20
208.617753
 42
-0.318767
  0
VERTEX
  8
0
 10
7.017702
 20
208.959266
 42
-0.000130
  0
VERTEX
  8
0
 10
11.855153
 20
221.026224
 42
-0.001745
  0
VERTEX
  8
0
 10
17.302675
 20
234.468870
 42
-0.001052
  0
VERTEX
  8
0
 10
23.849887
 20
250.369076
 42
0.000898
  0
VERTEX
  8
0
 10
30.424687
 20
266.322317
 42
0.001447
  0
VERTEX
  8
0
 10
35.962154
 20
279.939458
 42
0.000220
  0
VERTEX
  8
0
 10
40.833134
 20
292.033026
 42
0.095906
  0
VERTEX
  8
0
 10
41.000000
 20
292.894967
 42
0.235292
  0
VERTEX
  8
0
 10
40.707353
 20
293.482420
 42
0.014821
  0
VERTEX
  8
0
 10
39.084542
 20
294.633140
 42
0.019308
  0
VERTEX
  8
0
 10
36.977848
 20
295.920565
 42
0.012953
  0
VERTEX
  8
0
 10
34.479292
 20
297.234180
 42
-0.013486
  0
VERTEX
  8
0
 10
31.694504
 20
298.702071
 42
-0.033559
  0
VERTEX
  8
0
 10
29.768250
 20
299.961788
 42
-0.045737
  0
VERTEX
  8
0
 10
28.608799
 20
301.015518
 42
-0.284344
  0
VERTEX
  8
0
 10
28.465432
 20
301.770514
 42
-0.042489
  0
VERTEX
  8
0
 10
28.956879
 20
302.784427
 42
-0.000078
  0
VERTEX
  8
0
 10
38.500800
 20
318.836208
 42
-0.000578
  0
VERTEX
  8
0
 10
49.250149
 20
336.861568
 42
-0.000358
  0
VERTEX
  8
0
 10
61.916640
 20
358.011716
 42
0.000000
  0
VERTEX
  8
0
 10
94.861000
 20
412.932091
 42
0.000000
  0
VERTEX
  8
0
 10
116.667211
 20
438.216045
 42
-0.000075
  0
VERTEX
  8
0
 10
126.872348
 20
450.045156
 42
-0.000038
  0
VERTEX
  8
0
 10
139.681043
 20
464.885338
 42
-0.000038
  0
VERTEX
  8
0
 10
152.879296
 20
480.172141
 42
-0.000057
  0
VERTEX
  8
0
 10
164.390682
 20
493.500000
 42
0.000003
  0
VERTEX
  8
0
 10
175.528281
 20
506.392270
 42
0.000003
  0
VERTEX
  8
0
 10
187.567441
 20
520.328463
 42
0.000003
  0
VERTEX
  8
0
 10
198.736554
 20
533.257780
 42
0.000006
  0
VERTEX
  8
0
 10
206.895839
 20
542.703277
 42
0.000000
  0
VERTEX
  8
0
 10
223.483737
 20
561.906555
 42
0.000000
  0
VERTEX
  8
0
 10
227.491869
 20
559.590998
 42
0.004490
  0
VERTEX
  8
0
 10
229.658822
 20
558.364936
 42
0.001150
  0
VERTEX
  8
0
 10
233.186674
 20
556.421079
 42
0.001171
  0
VERTEX
  8
0
 10
237.223231
 20
554.221287
 42
0.001189
  0
SEQEND
  0
POLYLINE
  8
0
 66
1
 70
1
  0
VERTEX
  8
0
 10
165.893861
 20
447.269096
 42
0.000000
  0
VERTEX
  8
0
 10
140.606943
 20
422.291435
 42
0.000000
  0
VERTEX
  8
0
 10
144.553471
 20
417.678512
 42
0.012756
  0
VERTEX
  8
0
 10
146.147137
 20
415.909180
 42
0.017620
  0
VERTEX
  8
0
 10
147.671181
 20
414.411001
 42
0.014302
  0
VERTEX
  8
0
 10
148.992152
 20
413.268676
 42
0.165296
  0
VERTEX
  8
0
 10
149.625016
 20
413.032794
 42
0.200506
  0
VERTEX
  8
0
 10
150.873735
 20
413.512281
 42
0.000164
  0
VERTEX
  8
0
 10
175.312060
 20
436.866352
 42
0.000288
  0
VERTEX
  8
0
 10
199.370009
 20
459.898529
 42
0.103802
  0
VERTEX
  8
0
 10
200.759433
 20
461.930585
 42
0.273750
  0
VERTEX
  8
0
 10
200.701106
 20
462.339945
 42
0.007382
  0
VERTEX
  8
0
 10
199.497689
 20
463.795950
 42
0.013365
  0
VERTEX
  8
0
 10
197.966532
 20
465.499354
 42
0.008512
  0
VERTEX
  8
0
 10
196.099823
 20
467.401678
 42
0.000000
  0
VERTEX
  8
0
 10
191.180778
 20
472.246756
 42
0.000000
  0
SEQEND
  0
POLYLINE
  8
0
 66
1
 70
1
  0
VERTEX
  8
0
 10
195.702393
 20
466.803833
 42
-0.016051
  0
VERTEX
  8
0
 10
196.965176
 20
465.498731
 42
-0.020825
  0
VERTEX
  8
0
 10
198.031328
 20
464.220490
 42
-0.019031
  0
VERTEX
  8
0
 10
198.819297
 20
463.106122
 42
-0.145365
  0
VERTEX
  8
0
 10
199.000000
 20
462.497709
 42
-0.196180
  0
VERTEX
  8
0
 10
198.694437
 20
461.748900
 42
-0.000690
  0
VERTEX
  8
0
 10
191.784899
 20
454.711907
 42
-0.003511
  0
VERTEX
  8
0
 10
183.854262
 20
446.769557
 42
-0.002178
  0
VERTEX
  8
0
 10
174.437954
 20
437.551514
 42
0.000000
  0
VERTEX
  8
0
 10
149.875908
 20
413.715277
 42
0.000000
  0
VERTEX
  8
0
 10
145.917950
 20
417.580120
 42
0.000000
  0
VERTEX
  8
0
 10
141.959992
 20
421.444962
 42
0.000000
  0
VERTEX
  8
0
 10
166.222342
 20
445.722481
 42
-0.001852
  0
VERTEX
  8
0
 10
175.593163
 20
455.029958
 42
-0.002998
  0
VERTEX
  8
0
 10
183.639641
 20
462.868479
 42
-0.000511
  0
VERTEX
  8
0
 10
190.789931
 20
469.736840
 42
-0.193426
  0
VERTEX
  8
0
 10
191.444739
 20
470.000000
 42
-0.146679
  0
VERTEX
  8
0
 10
191.989408
 20
469.836704
 42
-0.015346
  0
VERTEX
  8
0
 10
193.091444
 20
469.061126
 42
-0.017983
  0
VERTEX
  8
0
 10
194.369362
 20
468.027926
 42
-0.013479
  0
SEQEND
  0
POLYLINE
  8
0
 66
1
 70
1
  0
VERTEX
  8
0
 10
99.323498
 20
329.258977
 42
0.000000
  0
VERTEX
  8
0
 10
92.146995
 20
328.915348
 42
0.000000
  0
VERTEX
  8
0
 10
86.422713
 20
321.441792
 42
0.005183
  0
VERTEX
  8
0
 10
84.256660
 20
318.552255
 42
0.008598
  0
VERTEX
  8
0
 10
82.497670
 20
316.065803
 42
0.002944
  0
VERTEX
  8
0
 10
81.056671
 20
313.925735
 42
0.383378
  0
VERTEX
  8
0
 10
81.099216
 20
313.635334
 42
0.124801
  0
VERTEX
  8
0
 10
81.891660
 20
313.257591
 42
0.000728
  0
VERTEX
  8
0
 10
89.961518
 20
311.663337
 42
0.001681
  0
VERTEX
  8
0
 10
97.622281
 20
310.188227
 42
0.046919
  0
VERTEX
  8
0
 10
99.646679
 20
309.999223
 42
0.271016
  0
VERTEX
  8
0
 10
100.236195
 20
310.344626
 42
0.009823
  0
VERTEX
  8
0
 10
101.514996
 20
312.731546
 42
0.015606
  0
VERTEX
  8
0
 10
102.932721
 20
315.735307
 42
0.010030
  0
VERTEX
  8
0
 10
104.396679
 20
319.299655
 42
0.002155
  0
VERTEX
  8
0
 10
106.853236
 20
325.721713
 42
0.023939
  0
VERTEX
  8
0
 10
107.698857
 20
328.333082
 42
0.106576
  0
VERTEX
  8
0
 10
107.759136
 20
329.470487
 42
0.443689
  0
VERTEX
  8
0
 10
107.250000
 20
329.801303
 42
-0.046063
  0
VERTEX
  8
0
 10
106.711420
 20
329.710560
 42
-0.001636
  0
VERTEX
  8
0
 10
104.612215
 20
329.560032
 42
-0.003013
  0
VERTEX
  8
0
 10
102.127513
 20
329.405067
 42
-0.002104
  0
SEQEND
  0
POLYLINE
  8
0
 66
1
 70
1
  0
VERTEX
  8
0
 10
106.000000
 20
327.271212
 42
-0.089384
  0
VERTEX
  8
0
 10
105.742548
 20
325.842568
 42
-0.002080
  0
VERTEX
  8
0
 10
103.317222
 20
319.413728
 42
-0.002104
  0
VERTEX
  8
0
 10
100.840212
 20
313.010659
 42
-0.088158
  0
VERTEX
  8
0
 10
100.073800
 20
311.758323
 42
-0.253367
  0
VERTEX
  8
0
 10
99.029167
 20
311.377642
 42
-0.003150
  0
VERTEX
  8
0
 10
91.757885
 20
312.499886
 42
-0.004365
  0
VERTEX
  8
0
 10
84.666757
 20
313.703712
 42
-0.153311
  0
VERTEX
  8
0
 10
83.194161
 20
314.472506
 42
-0.332848
  0
VERTEX
  8
0
 10
83.145969
 20
314.807757
 42
-0.011141
  0
VERTEX
  8
0
 10
83.856099
 20
316.041896
 42
-0.017081
  0
VERTEX
  8
0
 10
84.825146
 20
317.525572
 42
-0.010564
  0
VERTEX
  8
0
 10
86.058793
 20
319.203886
 42
-0.007601
  0
VERTEX
  8
0
 10
90.587964
 20
324.918414
 42
-0.078112
  0
VERTEX
  8
0
 10
92.827798
 20
326.920830
 42
-0.118110
  0
VERTEX
  8
0
 10
95.242635
 20
327.770847
 42
-0.025837
  0
VERTEX
  8
0
 10
99.674314
 20
328.000000
 42
-0.010813
  0
VERTEX
  8
0
 10
102.099603
 20
327.947545
 42
-0.017866
  0
VERTEX
  8
0
 10
104.141830
 20
327.785919
 42
-0.012116
  0
VERTEX
  8
0
 10
105.754525
 20
327.560404
 42
-0.367192
  0
SEQEND
  0
ENDSEC
  0
EOF
